<svg width="185" height="47" viewBox="0 0 185 47" fill="none" xmlns="http://www.w3.org/2000/svg">
<path d="M14.4615 25.078C14.4615 25.078 12.6431 39.0058 18.0731 31.6464C23.503 24.287 27.426 17.0594 30.0414 12.241L30.0414 12.2409C32.6568 7.42254 29.178 2.3724 24.103 5.11117C19.0281 7.84994 15.7669 14.5065 14.4615 25.078Z" fill="url(#paint0_linear_152_5262)" stroke="black" stroke-opacity="0.13"/>
<path d="M38.146 27.9498C38.146 27.9498 41.5621 20.2157 34.7298 24.0828C27.8975 27.9498 22.7733 31.8169 19.3571 34.3949L19.3571 34.3949C15.9409 36.973 19.3571 39.9806 25.3354 38.6916C31.3136 37.4026 35.6371 33.8238 38.146 27.9498Z" fill="url(#paint1_linear_152_5262)" stroke="black" stroke-opacity="0.13"/>
<path d="M11.3923 37.5464C11.3923 37.5464 10.0967 34.1644 12.4174 35.7677C14.7381 37.371 16.5011 39.0036 17.6765 40.0919C18.8519 41.1803 17.8067 42.5767 15.825 42.1056C13.8432 41.6345 12.3483 40.1165 11.3923 37.5464Z" fill="#A4AB93" stroke="black" stroke-opacity="0.13"/>
<path d="M55.4873 25.4248H51.502V22.9111H55.4873C56.1032 22.9111 56.6045 22.8109 56.9912 22.6104C57.3779 22.4027 57.6608 22.1162 57.8398 21.751C58.0189 21.3857 58.1084 20.974 58.1084 20.5156C58.1084 20.0501 58.0189 19.6169 57.8398 19.2158C57.6608 18.8148 57.3779 18.4925 56.9912 18.249C56.6045 18.0055 56.1032 17.8838 55.4873 17.8838H52.6191V31H49.3965V15.3594H55.4873C56.7119 15.3594 57.7611 15.5814 58.6348 16.0254C59.5156 16.4622 60.1888 17.0674 60.6543 17.8408C61.1198 18.6143 61.3525 19.4987 61.3525 20.4941C61.3525 21.5039 61.1198 22.3776 60.6543 23.1152C60.1888 23.8529 59.5156 24.4222 58.6348 24.8232C57.7611 25.2243 56.7119 25.4248 55.4873 25.4248ZM69.5273 28.3789V23.2012C69.5273 22.8288 69.4665 22.5101 69.3447 22.2451C69.223 21.973 69.0332 21.7617 68.7754 21.6113C68.5247 21.4609 68.1989 21.3857 67.7979 21.3857C67.4541 21.3857 67.1569 21.4466 66.9062 21.5684C66.6556 21.6829 66.4622 21.8512 66.3262 22.0732C66.1901 22.2881 66.1221 22.5423 66.1221 22.8359H63.0283C63.0283 22.3418 63.1429 21.8727 63.3721 21.4287C63.6012 20.9847 63.9342 20.5944 64.3711 20.2578C64.8079 19.9141 65.3271 19.6455 65.9287 19.4521C66.5374 19.2588 67.2178 19.1621 67.9697 19.1621C68.8721 19.1621 69.6742 19.3125 70.376 19.6133C71.0778 19.9141 71.6292 20.3652 72.0303 20.9668C72.4385 21.5684 72.6426 22.3203 72.6426 23.2227V28.1963C72.6426 28.8337 72.682 29.3564 72.7607 29.7646C72.8395 30.1657 72.9541 30.5166 73.1045 30.8174V31H69.9785C69.8281 30.6849 69.7135 30.291 69.6348 29.8184C69.5632 29.3385 69.5273 28.8587 69.5273 28.3789ZM69.9355 23.9209L69.957 25.6719H68.2275C67.8193 25.6719 67.4648 25.7184 67.1641 25.8115C66.8633 25.9046 66.6162 26.0371 66.4229 26.209C66.2295 26.3737 66.0863 26.5671 65.9932 26.7891C65.9072 27.0111 65.8643 27.2546 65.8643 27.5195C65.8643 27.7845 65.9251 28.0244 66.0469 28.2393C66.1686 28.4469 66.3441 28.6117 66.5732 28.7334C66.8024 28.848 67.071 28.9053 67.3789 28.9053C67.8444 28.9053 68.249 28.8122 68.5928 28.626C68.9365 28.4398 69.2015 28.2106 69.3877 27.9385C69.5811 27.6663 69.6813 27.4085 69.6885 27.165L70.5049 28.4756C70.3903 28.7692 70.2327 29.0736 70.0322 29.3887C69.8389 29.7038 69.5918 30.001 69.291 30.2803C68.9902 30.5524 68.6286 30.778 68.2061 30.957C67.7835 31.1289 67.2822 31.2148 66.7021 31.2148C65.9645 31.2148 65.2949 31.068 64.6934 30.7744C64.099 30.4736 63.6263 30.0618 63.2754 29.5391C62.9316 29.0091 62.7598 28.4076 62.7598 27.7344C62.7598 27.1257 62.8743 26.585 63.1035 26.1123C63.3327 25.6396 63.6693 25.2422 64.1133 24.9199C64.5645 24.5905 65.1266 24.3434 65.7998 24.1787C66.473 24.0068 67.2536 23.9209 68.1416 23.9209H69.9355ZM81.9023 28.2178V19.377H84.9961V31H82.085L81.9023 28.2178ZM82.2461 25.833L83.1592 25.8115C83.1592 26.585 83.0697 27.3047 82.8906 27.9707C82.7116 28.6296 82.443 29.2025 82.085 29.6895C81.7269 30.1693 81.2757 30.5452 80.7314 30.8174C80.1872 31.0824 79.5462 31.2148 78.8086 31.2148C78.2428 31.2148 77.7201 31.1361 77.2402 30.9785C76.7676 30.8138 76.3594 30.5596 76.0156 30.2158C75.679 29.8649 75.4141 29.4173 75.2207 28.873C75.0345 28.3216 74.9414 27.6592 74.9414 26.8857V19.377H78.0352V26.9072C78.0352 27.251 78.0745 27.541 78.1533 27.7773C78.2393 28.0137 78.3574 28.207 78.5078 28.3574C78.6582 28.5078 78.8337 28.6152 79.0342 28.6797C79.2419 28.7441 79.471 28.7764 79.7217 28.7764C80.359 28.7764 80.8604 28.6475 81.2256 28.3896C81.598 28.1318 81.8594 27.7809 82.0098 27.3369C82.1673 26.8857 82.2461 26.3844 82.2461 25.833ZM90.625 14.5V31H87.5205V14.5H90.625ZM102.076 15.3594V31H98.8535V15.3594H102.076ZM111.443 15.3594L105.245 23.083L101.668 26.9287L101.088 23.8779L103.505 20.5693L107.49 15.3594H111.443ZM107.78 31L103.172 23.7705L105.557 21.7725L111.594 31H107.78ZM118.92 28.3789V23.2012C118.92 22.8288 118.859 22.5101 118.737 22.2451C118.616 21.973 118.426 21.7617 118.168 21.6113C117.917 21.4609 117.591 21.3857 117.19 21.3857C116.847 21.3857 116.549 21.4466 116.299 21.5684C116.048 21.6829 115.855 21.8512 115.719 22.0732C115.583 22.2881 115.515 22.5423 115.515 22.8359H112.421C112.421 22.3418 112.535 21.8727 112.765 21.4287C112.994 20.9847 113.327 20.5944 113.764 20.2578C114.201 19.9141 114.72 19.6455 115.321 19.4521C115.93 19.2588 116.61 19.1621 117.362 19.1621C118.265 19.1621 119.067 19.3125 119.769 19.6133C120.47 19.9141 121.022 20.3652 121.423 20.9668C121.831 21.5684 122.035 22.3203 122.035 23.2227V28.1963C122.035 28.8337 122.075 29.3564 122.153 29.7646C122.232 30.1657 122.347 30.5166 122.497 30.8174V31H119.371C119.221 30.6849 119.106 30.291 119.027 29.8184C118.956 29.3385 118.92 28.8587 118.92 28.3789ZM119.328 23.9209L119.35 25.6719H117.62C117.212 25.6719 116.857 25.7184 116.557 25.8115C116.256 25.9046 116.009 26.0371 115.815 26.209C115.622 26.3737 115.479 26.5671 115.386 26.7891C115.3 27.0111 115.257 27.2546 115.257 27.5195C115.257 27.7845 115.318 28.0244 115.439 28.2393C115.561 28.4469 115.737 28.6117 115.966 28.7334C116.195 28.848 116.464 28.9053 116.771 28.9053C117.237 28.9053 117.642 28.8122 117.985 28.626C118.329 28.4398 118.594 28.2106 118.78 27.9385C118.974 27.6663 119.074 27.4085 119.081 27.165L119.897 28.4756C119.783 28.7692 119.625 29.0736 119.425 29.3887C119.231 29.7038 118.984 30.001 118.684 30.2803C118.383 30.5524 118.021 30.778 117.599 30.957C117.176 31.1289 116.675 31.2148 116.095 31.2148C115.357 31.2148 114.688 31.068 114.086 30.7744C113.492 30.4736 113.019 30.0618 112.668 29.5391C112.324 29.0091 112.152 28.4076 112.152 27.7344C112.152 27.1257 112.267 26.585 112.496 26.1123C112.725 25.6396 113.062 25.2422 113.506 24.9199C113.957 24.5905 114.519 24.3434 115.192 24.1787C115.866 24.0068 116.646 23.9209 117.534 23.9209H119.328ZM130.693 28.3789V23.2012C130.693 22.8288 130.632 22.5101 130.511 22.2451C130.389 21.973 130.199 21.7617 129.941 21.6113C129.691 21.4609 129.365 21.3857 128.964 21.3857C128.62 21.3857 128.323 21.4466 128.072 21.5684C127.822 21.6829 127.628 21.8512 127.492 22.0732C127.356 22.2881 127.288 22.5423 127.288 22.8359H124.194C124.194 22.3418 124.309 21.8727 124.538 21.4287C124.767 20.9847 125.1 20.5944 125.537 20.2578C125.974 19.9141 126.493 19.6455 127.095 19.4521C127.703 19.2588 128.384 19.1621 129.136 19.1621C130.038 19.1621 130.84 19.3125 131.542 19.6133C132.244 19.9141 132.795 20.3652 133.196 20.9668C133.604 21.5684 133.809 22.3203 133.809 23.2227V28.1963C133.809 28.8337 133.848 29.3564 133.927 29.7646C134.006 30.1657 134.12 30.5166 134.271 30.8174V31H131.145C130.994 30.6849 130.88 30.291 130.801 29.8184C130.729 29.3385 130.693 28.8587 130.693 28.3789ZM131.102 23.9209L131.123 25.6719H129.394C128.985 25.6719 128.631 25.7184 128.33 25.8115C128.029 25.9046 127.782 26.0371 127.589 26.209C127.396 26.3737 127.252 26.5671 127.159 26.7891C127.073 27.0111 127.03 27.2546 127.03 27.5195C127.03 27.7845 127.091 28.0244 127.213 28.2393C127.335 28.4469 127.51 28.6117 127.739 28.7334C127.968 28.848 128.237 28.9053 128.545 28.9053C129.01 28.9053 129.415 28.8122 129.759 28.626C130.103 28.4398 130.368 28.2106 130.554 27.9385C130.747 27.6663 130.847 27.4085 130.854 27.165L131.671 28.4756C131.556 28.7692 131.399 29.0736 131.198 29.3887C131.005 29.7038 130.758 30.001 130.457 30.2803C130.156 30.5524 129.795 30.778 129.372 30.957C128.95 31.1289 128.448 31.2148 127.868 31.2148C127.131 31.2148 126.461 31.068 125.859 30.7744C125.265 30.4736 124.792 30.0618 124.441 29.5391C124.098 29.0091 123.926 28.4076 123.926 27.7344C123.926 27.1257 124.04 26.585 124.27 26.1123C124.499 25.6396 124.835 25.2422 125.279 24.9199C125.73 24.5905 126.293 24.3434 126.966 24.1787C127.639 24.0068 128.42 23.9209 129.308 23.9209H131.102ZM143.058 28.4648V14.5H146.173V31H143.369L143.058 28.4648ZM135.71 25.3281V25.1025C135.71 24.2145 135.81 23.4089 136.011 22.6855C136.211 21.9551 136.505 21.3285 136.892 20.8057C137.278 20.2829 137.755 19.8783 138.32 19.5918C138.886 19.3053 139.531 19.1621 140.254 19.1621C140.934 19.1621 141.529 19.3053 142.037 19.5918C142.553 19.8783 142.99 20.2865 143.348 20.8164C143.713 21.3392 144.007 21.9587 144.229 22.6748C144.451 23.3838 144.612 24.1608 144.712 25.0059V25.5C144.612 26.3092 144.451 27.0612 144.229 27.7559C144.007 28.4505 143.713 29.0592 143.348 29.582C142.99 30.0977 142.553 30.4987 142.037 30.7852C141.521 31.0716 140.92 31.2148 140.232 31.2148C139.509 31.2148 138.865 31.068 138.299 30.7744C137.74 30.4808 137.268 30.069 136.881 29.5391C136.501 29.0091 136.211 28.3861 136.011 27.6699C135.81 26.9538 135.71 26.1732 135.71 25.3281ZM138.804 25.1025V25.3281C138.804 25.8079 138.84 26.2555 138.911 26.6709C138.99 27.0863 139.115 27.4551 139.287 27.7773C139.466 28.0924 139.695 28.3395 139.975 28.5186C140.261 28.6904 140.608 28.7764 141.017 28.7764C141.547 28.7764 141.983 28.6582 142.327 28.4219C142.671 28.1784 142.932 27.8454 143.111 27.4229C143.298 27.0003 143.405 26.5133 143.434 25.9619V24.5547C143.412 24.1035 143.348 23.6989 143.24 23.3408C143.14 22.9756 142.99 22.6641 142.789 22.4062C142.596 22.1484 142.352 21.9479 142.059 21.8047C141.772 21.6615 141.432 21.5898 141.038 21.5898C140.637 21.5898 140.293 21.6829 140.007 21.8691C139.72 22.0482 139.488 22.2952 139.309 22.6104C139.137 22.9255 139.008 23.2979 138.922 23.7275C138.843 24.1501 138.804 24.6084 138.804 25.1025ZM155.465 28.2178V19.377H158.559V31H155.647L155.465 28.2178ZM155.809 25.833L156.722 25.8115C156.722 26.585 156.632 27.3047 156.453 27.9707C156.274 28.6296 156.006 29.2025 155.647 29.6895C155.289 30.1693 154.838 30.5452 154.294 30.8174C153.75 31.0824 153.109 31.2148 152.371 31.2148C151.805 31.2148 151.283 31.1361 150.803 30.9785C150.33 30.8138 149.922 30.5596 149.578 30.2158C149.242 29.8649 148.977 29.4173 148.783 28.873C148.597 28.3216 148.504 27.6592 148.504 26.8857V19.377H151.598V26.9072C151.598 27.251 151.637 27.541 151.716 27.7773C151.802 28.0137 151.92 28.207 152.07 28.3574C152.221 28.5078 152.396 28.6152 152.597 28.6797C152.804 28.7441 153.034 28.7764 153.284 28.7764C153.922 28.7764 154.423 28.6475 154.788 28.3896C155.16 28.1318 155.422 27.7809 155.572 27.3369C155.73 26.8857 155.809 26.3844 155.809 25.833Z" fill="#50A054"/>
<defs>
<linearGradient id="paint0_linear_152_5262" x1="28.4095" y1="4.18545" x2="12.8075" y2="30.21" gradientUnits="userSpaceOnUse">
<stop stop-color="#50A054"/>
<stop offset="0.48052" stop-color="#8EC788" stop-opacity="0.906804"/>
<stop offset="0.932292" stop-color="#AFECA9" stop-opacity="0.854167"/>
<stop offset="1" stop-color="#8EC089" stop-opacity="0"/>
</linearGradient>
<linearGradient id="paint1_linear_152_5262" x1="39" y1="23" x2="18.0203" y2="36.5486" gradientUnits="userSpaceOnUse">
<stop stop-color="#50A054"/>
<stop offset="0.223958" stop-color="#8DC888" stop-opacity="0.776042"/>
<stop offset="0.880208" stop-color="#8DC888" stop-opacity="0.776042"/>
<stop offset="1" stop-color="#8DC888" stop-opacity="0"/>
</linearGradient>
</defs>
</svg>
