<svg width="163" height="45" viewBox="0 0 163 45" fill="none" xmlns="http://www.w3.org/2000/svg">
<path d="M9.46148 24.078C9.46148 24.078 7.6431 38.0058 13.0731 30.6464C18.503 23.287 22.426 16.0594 25.0414 11.241L25.0414 11.2409C27.6568 6.42254 24.178 1.3724 19.103 4.11117C14.0281 6.84994 10.7669 13.5065 9.46148 24.078Z" fill="url(#paint0_linear_152_5262)" stroke="black" stroke-opacity="0.13"/>
<path d="M33.146 26.9498C33.146 26.9498 36.5621 19.2157 29.7298 23.0828C22.8975 26.9498 17.7733 30.8169 14.3571 33.3949L14.3571 33.3949C10.9409 35.973 14.3571 38.9806 20.3354 37.6916C26.3136 36.4026 30.6371 32.8238 33.146 26.9498Z" fill="url(#paint1_linear_152_5262)" stroke="black" stroke-opacity="0.13"/>
<path d="M6.3923 36.5464C6.3923 36.5464 5.09672 33.1644 7.41741 34.7677C9.73809 36.371 11.5011 38.0036 12.6765 39.0919C13.8519 40.1803 12.8067 41.5767 10.825 41.1056C8.8432 40.6345 7.34829 39.1165 6.3923 36.5464Z" fill="#A4AB93" stroke="black" stroke-opacity="0.13"/>
<path d="M52.4873 30.4248H48.502V27.9111H52.4873C53.1032 27.9111 53.6045 27.8109 53.9912 27.6104C54.3779 27.4027 54.6608 27.1162 54.8398 26.751C55.0189 26.3857 55.1084 25.974 55.1084 25.5156C55.1084 25.0501 55.0189 24.6169 54.8398 24.2158C54.6608 23.8148 54.3779 23.4925 53.9912 23.249C53.6045 23.0055 53.1032 22.8838 52.4873 22.8838H49.6191V36H46.3965V20.3594H52.4873C53.7119 20.3594 54.7611 20.5814 55.6348 21.0254C56.5156 21.4622 57.1888 22.0674 57.6543 22.8408C58.1198 23.6143 58.3525 24.4987 58.3525 25.4941C58.3525 26.5039 58.1198 27.3776 57.6543 28.1152C57.1888 28.8529 56.5156 29.4222 55.6348 29.8232C54.7611 30.2243 53.7119 30.4248 52.4873 30.4248ZM66.5273 33.3789V28.2012C66.5273 27.8288 66.4665 27.5101 66.3447 27.2451C66.223 26.973 66.0332 26.7617 65.7754 26.6113C65.5247 26.4609 65.1989 26.3857 64.7979 26.3857C64.4541 26.3857 64.1569 26.4466 63.9062 26.5684C63.6556 26.6829 63.4622 26.8512 63.3262 27.0732C63.1901 27.2881 63.1221 27.5423 63.1221 27.8359H60.0283C60.0283 27.3418 60.1429 26.8727 60.3721 26.4287C60.6012 25.9847 60.9342 25.5944 61.3711 25.2578C61.8079 24.9141 62.3271 24.6455 62.9287 24.4521C63.5374 24.2588 64.2178 24.1621 64.9697 24.1621C65.8721 24.1621 66.6742 24.3125 67.376 24.6133C68.0778 24.9141 68.6292 25.3652 69.0303 25.9668C69.4385 26.5684 69.6426 27.3203 69.6426 28.2227V33.1963C69.6426 33.8337 69.682 34.3564 69.7607 34.7646C69.8395 35.1657 69.9541 35.5166 70.1045 35.8174V36H66.9785C66.8281 35.6849 66.7135 35.291 66.6348 34.8184C66.5632 34.3385 66.5273 33.8587 66.5273 33.3789ZM66.9355 28.9209L66.957 30.6719H65.2275C64.8193 30.6719 64.4648 30.7184 64.1641 30.8115C63.8633 30.9046 63.6162 31.0371 63.4229 31.209C63.2295 31.3737 63.0863 31.5671 62.9932 31.7891C62.9072 32.0111 62.8643 32.2546 62.8643 32.5195C62.8643 32.7845 62.9251 33.0244 63.0469 33.2393C63.1686 33.4469 63.3441 33.6117 63.5732 33.7334C63.8024 33.848 64.071 33.9053 64.3789 33.9053C64.8444 33.9053 65.249 33.8122 65.5928 33.626C65.9365 33.4398 66.2015 33.2106 66.3877 32.9385C66.5811 32.6663 66.6813 32.4085 66.6885 32.165L67.5049 33.4756C67.3903 33.7692 67.2327 34.0736 67.0322 34.3887C66.8389 34.7038 66.5918 35.001 66.291 35.2803C65.9902 35.5524 65.6286 35.778 65.2061 35.957C64.7835 36.1289 64.2822 36.2148 63.7021 36.2148C62.9645 36.2148 62.2949 36.068 61.6934 35.7744C61.099 35.4736 60.6263 35.0618 60.2754 34.5391C59.9316 34.0091 59.7598 33.4076 59.7598 32.7344C59.7598 32.1257 59.8743 31.585 60.1035 31.1123C60.3327 30.6396 60.6693 30.2422 61.1133 29.9199C61.5645 29.5905 62.1266 29.3434 62.7998 29.1787C63.473 29.0068 64.2536 28.9209 65.1416 28.9209H66.9355ZM78.9023 33.2178V24.377H81.9961V36H79.085L78.9023 33.2178ZM79.2461 30.833L80.1592 30.8115C80.1592 31.585 80.0697 32.3047 79.8906 32.9707C79.7116 33.6296 79.443 34.2025 79.085 34.6895C78.7269 35.1693 78.2757 35.5452 77.7314 35.8174C77.1872 36.0824 76.5462 36.2148 75.8086 36.2148C75.2428 36.2148 74.7201 36.1361 74.2402 35.9785C73.7676 35.8138 73.3594 35.5596 73.0156 35.2158C72.679 34.8649 72.4141 34.4173 72.2207 33.873C72.0345 33.3216 71.9414 32.6592 71.9414 31.8857V24.377H75.0352V31.9072C75.0352 32.251 75.0745 32.541 75.1533 32.7773C75.2393 33.0137 75.3574 33.207 75.5078 33.3574C75.6582 33.5078 75.8337 33.6152 76.0342 33.6797C76.2419 33.7441 76.471 33.7764 76.7217 33.7764C77.359 33.7764 77.8604 33.6475 78.2256 33.3896C78.598 33.1318 78.8594 32.7809 79.0098 32.3369C79.1673 31.8857 79.2461 31.3844 79.2461 30.833ZM87.625 19.5V36H84.5205V19.5H87.625ZM99.0762 20.3594V36H95.8535V20.3594H99.0762ZM108.443 20.3594L102.245 28.083L98.668 31.9287L98.0879 28.8779L100.505 25.5693L104.49 20.3594H108.443ZM104.78 36L100.172 28.7705L102.557 26.7725L108.594 36H104.78ZM115.92 33.3789V28.2012C115.92 27.8288 115.859 27.5101 115.737 27.2451C115.616 26.973 115.426 26.7617 115.168 26.6113C114.917 26.4609 114.591 26.3857 114.19 26.3857C113.847 26.3857 113.549 26.4466 113.299 26.5684C113.048 26.6829 112.855 26.8512 112.719 27.0732C112.583 27.2881 112.515 27.5423 112.515 27.8359H109.421C109.421 27.3418 109.535 26.8727 109.765 26.4287C109.994 25.9847 110.327 25.5944 110.764 25.2578C111.201 24.9141 111.72 24.6455 112.321 24.4521C112.93 24.2588 113.61 24.1621 114.362 24.1621C115.265 24.1621 116.067 24.3125 116.769 24.6133C117.47 24.9141 118.022 25.3652 118.423 25.9668C118.831 26.5684 119.035 27.3203 119.035 28.2227V33.1963C119.035 33.8337 119.075 34.3564 119.153 34.7646C119.232 35.1657 119.347 35.5166 119.497 35.8174V36H116.371C116.221 35.6849 116.106 35.291 116.027 34.8184C115.956 34.3385 115.92 33.8587 115.92 33.3789ZM116.328 28.9209L116.35 30.6719H114.62C114.212 30.6719 113.857 30.7184 113.557 30.8115C113.256 30.9046 113.009 31.0371 112.815 31.209C112.622 31.3737 112.479 31.5671 112.386 31.7891C112.3 32.0111 112.257 32.2546 112.257 32.5195C112.257 32.7845 112.318 33.0244 112.439 33.2393C112.561 33.4469 112.737 33.6117 112.966 33.7334C113.195 33.848 113.464 33.9053 113.771 33.9053C114.237 33.9053 114.642 33.8122 114.985 33.626C115.329 33.4398 115.594 33.2106 115.78 32.9385C115.974 32.6663 116.074 32.4085 116.081 32.165L116.897 33.4756C116.783 33.7692 116.625 34.0736 116.425 34.3887C116.231 34.7038 115.984 35.001 115.684 35.2803C115.383 35.5524 115.021 35.778 114.599 35.957C114.176 36.1289 113.675 36.2148 113.095 36.2148C112.357 36.2148 111.688 36.068 111.086 35.7744C110.492 35.4736 110.019 35.0618 109.668 34.5391C109.324 34.0091 109.152 33.4076 109.152 32.7344C109.152 32.1257 109.267 31.585 109.496 31.1123C109.725 30.6396 110.062 30.2422 110.506 29.9199C110.957 29.5905 111.519 29.3434 112.192 29.1787C112.866 29.0068 113.646 28.9209 114.534 28.9209H116.328ZM127.693 33.3789V28.2012C127.693 27.8288 127.632 27.5101 127.511 27.2451C127.389 26.973 127.199 26.7617 126.941 26.6113C126.691 26.4609 126.365 26.3857 125.964 26.3857C125.62 26.3857 125.323 26.4466 125.072 26.5684C124.822 26.6829 124.628 26.8512 124.492 27.0732C124.356 27.2881 124.288 27.5423 124.288 27.8359H121.194C121.194 27.3418 121.309 26.8727 121.538 26.4287C121.767 25.9847 122.1 25.5944 122.537 25.2578C122.974 24.9141 123.493 24.6455 124.095 24.4521C124.703 24.2588 125.384 24.1621 126.136 24.1621C127.038 24.1621 127.84 24.3125 128.542 24.6133C129.244 24.9141 129.795 25.3652 130.196 25.9668C130.604 26.5684 130.809 27.3203 130.809 28.2227V33.1963C130.809 33.8337 130.848 34.3564 130.927 34.7646C131.006 35.1657 131.12 35.5166 131.271 35.8174V36H128.145C127.994 35.6849 127.88 35.291 127.801 34.8184C127.729 34.3385 127.693 33.8587 127.693 33.3789ZM128.102 28.9209L128.123 30.6719H126.394C125.985 30.6719 125.631 30.7184 125.33 30.8115C125.029 30.9046 124.782 31.0371 124.589 31.209C124.396 31.3737 124.252 31.5671 124.159 31.7891C124.073 32.0111 124.03 32.2546 124.03 32.5195C124.03 32.7845 124.091 33.0244 124.213 33.2393C124.335 33.4469 124.51 33.6117 124.739 33.7334C124.968 33.848 125.237 33.9053 125.545 33.9053C126.01 33.9053 126.415 33.8122 126.759 33.626C127.103 33.4398 127.368 33.2106 127.554 32.9385C127.747 32.6663 127.847 32.4085 127.854 32.165L128.671 33.4756C128.556 33.7692 128.399 34.0736 128.198 34.3887C128.005 34.7038 127.758 35.001 127.457 35.2803C127.156 35.5524 126.795 35.778 126.372 35.957C125.95 36.1289 125.448 36.2148 124.868 36.2148C124.131 36.2148 123.461 36.068 122.859 35.7744C122.265 35.4736 121.792 35.0618 121.441 34.5391C121.098 34.0091 120.926 33.4076 120.926 32.7344C120.926 32.1257 121.04 31.585 121.27 31.1123C121.499 30.6396 121.835 30.2422 122.279 29.9199C122.73 29.5905 123.293 29.3434 123.966 29.1787C124.639 29.0068 125.42 28.9209 126.308 28.9209H128.102ZM140.058 33.4648V19.5H143.173V36H140.369L140.058 33.4648ZM132.71 30.3281V30.1025C132.71 29.2145 132.81 28.4089 133.011 27.6855C133.211 26.9551 133.505 26.3285 133.892 25.8057C134.278 25.2829 134.755 24.8783 135.32 24.5918C135.886 24.3053 136.531 24.1621 137.254 24.1621C137.934 24.1621 138.529 24.3053 139.037 24.5918C139.553 24.8783 139.99 25.2865 140.348 25.8164C140.713 26.3392 141.007 26.9587 141.229 27.6748C141.451 28.3838 141.612 29.1608 141.712 30.0059V30.5C141.612 31.3092 141.451 32.0612 141.229 32.7559C141.007 33.4505 140.713 34.0592 140.348 34.582C139.99 35.0977 139.553 35.4987 139.037 35.7852C138.521 36.0716 137.92 36.2148 137.232 36.2148C136.509 36.2148 135.865 36.068 135.299 35.7744C134.74 35.4808 134.268 35.069 133.881 34.5391C133.501 34.0091 133.211 33.3861 133.011 32.6699C132.81 31.9538 132.71 31.1732 132.71 30.3281ZM135.804 30.1025V30.3281C135.804 30.8079 135.84 31.2555 135.911 31.6709C135.99 32.0863 136.115 32.4551 136.287 32.7773C136.466 33.0924 136.695 33.3395 136.975 33.5186C137.261 33.6904 137.608 33.7764 138.017 33.7764C138.547 33.7764 138.983 33.6582 139.327 33.4219C139.671 33.1784 139.932 32.8454 140.111 32.4229C140.298 32.0003 140.405 31.5133 140.434 30.9619V29.5547C140.412 29.1035 140.348 28.6989 140.24 28.3408C140.14 27.9756 139.99 27.6641 139.789 27.4062C139.596 27.1484 139.352 26.9479 139.059 26.8047C138.772 26.6615 138.432 26.5898 138.038 26.5898C137.637 26.5898 137.293 26.6829 137.007 26.8691C136.72 27.0482 136.488 27.2952 136.309 27.6104C136.137 27.9255 136.008 28.2979 135.922 28.7275C135.843 29.1501 135.804 29.6084 135.804 30.1025ZM152.465 33.2178V24.377H155.559V36H152.647L152.465 33.2178ZM152.809 30.833L153.722 30.8115C153.722 31.585 153.632 32.3047 153.453 32.9707C153.274 33.6296 153.006 34.2025 152.647 34.6895C152.289 35.1693 151.838 35.5452 151.294 35.8174C150.75 36.0824 150.109 36.2148 149.371 36.2148C148.805 36.2148 148.283 36.1361 147.803 35.9785C147.33 35.8138 146.922 35.5596 146.578 35.2158C146.242 34.8649 145.977 34.4173 145.783 33.873C145.597 33.3216 145.504 32.6592 145.504 31.8857V24.377H148.598V31.9072C148.598 32.251 148.637 32.541 148.716 32.7773C148.802 33.0137 148.92 33.207 149.07 33.3574C149.221 33.5078 149.396 33.6152 149.597 33.6797C149.804 33.7441 150.034 33.7764 150.284 33.7764C150.922 33.7764 151.423 33.6475 151.788 33.3896C152.16 33.1318 152.422 32.7809 152.572 32.3369C152.73 31.8857 152.809 31.3844 152.809 30.833Z" fill="#50A054"/>
<defs>
<linearGradient id="paint0_linear_152_5262" x1="23.4095" y1="3.18545" x2="7.80749" y2="29.21" gradientUnits="userSpaceOnUse">
<stop stop-color="#50A054"/>
<stop offset="0.48052" stop-color="#8EC788" stop-opacity="0.906804"/>
<stop offset="0.932292" stop-color="#AFECA9" stop-opacity="0.854167"/>
<stop offset="1" stop-color="#8EC089" stop-opacity="0"/>
</linearGradient>
<linearGradient id="paint1_linear_152_5262" x1="34" y1="22" x2="13.0203" y2="35.5486" gradientUnits="userSpaceOnUse">
<stop stop-color="#50A054"/>
<stop offset="0.223958" stop-color="#8DC888" stop-opacity="0.776042"/>
<stop offset="0.880208" stop-color="#8DC888" stop-opacity="0.776042"/>
<stop offset="1" stop-color="#8DC888" stop-opacity="0"/>
</linearGradient>
</defs>
</svg>
